<svg width="28" height="28" viewBox="0 0 28 28" fill="none" xmlns="http://www.w3.org/2000/svg">
<rect width="28" height="28" rx="14" fill="#243542"/>
<path d="M20.7922 7.57656C19.5429 6.98569 18.2033 6.55036 16.8027 6.30103C16.7772 6.29622 16.7517 6.30825 16.7385 6.3323C16.5663 6.64817 16.3754 7.06025 16.2418 7.38414C14.7353 7.15165 13.2365 7.15165 11.7609 7.38414C11.6272 7.05305 11.4295 6.64817 11.2564 6.3323C11.2433 6.30905 11.2178 6.29702 11.1923 6.30103C9.79241 6.54957 8.45279 6.9849 7.20278 7.57656C7.19196 7.58137 7.18268 7.5894 7.17653 7.59981C4.63555 11.513 3.93948 15.33 4.28095 19.0996C4.28249 19.1181 4.29254 19.1357 4.30644 19.1469C5.98291 20.416 7.60685 21.1865 9.20063 21.6972C9.22614 21.7052 9.25316 21.6956 9.26939 21.6739C9.6464 21.1432 9.98248 20.5836 10.2706 19.9951C10.2876 19.9607 10.2714 19.9198 10.2366 19.9062C9.70358 19.6977 9.19599 19.4436 8.70773 19.155C8.66911 19.1317 8.66602 19.0748 8.70155 19.0475C8.80429 18.9681 8.90707 18.8856 9.00518 18.8022C9.02293 18.787 9.04767 18.7837 9.06854 18.7934C12.2762 20.303 15.7489 20.303 18.9187 18.7934C18.9396 18.7829 18.9643 18.7862 18.9828 18.8014C19.081 18.8848 19.1837 18.9681 19.2872 19.0475C19.3228 19.0748 19.3204 19.1317 19.2818 19.155C18.7936 19.4492 18.286 19.6977 17.7521 19.9054C17.7174 19.919 17.7019 19.9607 17.7189 19.9951C18.0133 20.5828 18.3493 21.1424 18.7194 21.6731C18.7348 21.6956 18.7626 21.7052 18.7881 21.6972C20.3897 21.1865 22.0136 20.416 23.6901 19.1469C23.7047 19.1357 23.714 19.1189 23.7156 19.1004C24.1242 14.7423 23.031 10.9566 20.8177 7.60061C20.8122 7.5894 20.803 7.58137 20.7922 7.57656ZM10.7496 16.8043C9.78391 16.8043 8.98818 15.8904 8.98818 14.768C8.98818 13.6455 9.76848 12.7316 10.7496 12.7316C11.7385 12.7316 12.5265 13.6536 12.5111 14.768C12.5111 15.8904 11.7308 16.8043 10.7496 16.8043ZM17.2623 16.8043C16.2966 16.8043 15.5009 15.8904 15.5009 14.768C15.5009 13.6455 16.2812 12.7316 17.2623 12.7316C18.2512 12.7316 19.0392 13.6536 19.0238 14.768C19.0238 15.8904 18.2512 16.8043 17.2623 16.8043Z" fill="white"/>
</svg>
