<svg width="28" height="28" viewBox="0 0 28 28" fill="none" xmlns="http://www.w3.org/2000/svg">
<rect width="28" height="28" rx="14" fill="#243542"/>
<path fill-rule="evenodd" clip-rule="evenodd" d="M6.33743 13.8522C10.4187 12.074 13.1402 10.9018 14.5019 10.3354C18.3899 8.71827 19.1978 8.43735 19.7243 8.42808C19.8401 8.42604 20.0991 8.45474 20.2668 8.59085C20.4085 8.70577 20.4474 8.86102 20.4661 8.96998C20.4847 9.07895 20.5079 9.32716 20.4895 9.52112C20.2788 11.7348 19.3671 17.107 18.9033 19.5864C18.7071 20.6355 18.3207 20.9873 17.9466 21.0217C17.1336 21.0965 16.5162 20.4844 15.7288 19.9683C14.4966 19.1605 13.8005 18.6577 12.6044 17.8696C11.2222 16.9587 12.1183 16.4581 12.906 15.6399C13.1121 15.4258 16.6943 12.1676 16.7636 11.872C16.7723 11.835 16.7803 11.6972 16.6985 11.6245C16.6166 11.5517 16.4958 11.5766 16.4086 11.5964C16.285 11.6244 14.3166 12.9255 10.5033 15.4995C9.94457 15.8832 9.43849 16.0701 8.98506 16.0603C8.48519 16.0496 7.52363 15.7777 6.80882 15.5454C5.93207 15.2604 5.23524 15.1097 5.29592 14.6257C5.32752 14.3736 5.6747 14.1157 6.33743 13.8522Z" fill="white"/>
</svg>
