<svg width="28" height="28" viewBox="0 0 28 28" fill="none" xmlns="http://www.w3.org/2000/svg">
<rect width="28" height="28" rx="14" fill="#243542"/>
<path d="M14.0022 7.11411C16.2467 7.11411 16.5102 7.12412 17.3973 7.16414C18.2178 7.20082 18.6613 7.33756 18.9581 7.45429C19.3517 7.6077 19.6318 7.7878 19.9253 8.08129C20.2188 8.37478 20.4022 8.65493 20.5523 9.04847C20.6657 9.34529 20.8058 9.78886 20.8425 10.6093C20.8825 11.4964 20.8925 11.7599 20.8925 14.0044C20.8925 16.2489 20.8825 16.5124 20.8425 17.3996C20.8058 18.22 20.6691 18.6636 20.5523 18.9604C20.3989 19.3539 20.2188 19.6341 19.9253 19.9276C19.6318 20.221 19.3517 20.4045 18.9581 20.5546C18.6613 20.6679 18.2178 20.808 17.3973 20.8447C16.5102 20.8847 16.2467 20.8947 14.0022 20.8947C11.7577 20.8947 11.4942 20.8847 10.6071 20.8447C9.78662 20.808 9.34306 20.6713 9.04623 20.5546C8.65269 20.4011 8.37254 20.221 8.07905 19.9276C7.78556 19.6341 7.60213 19.3539 7.45205 18.9604C7.33866 18.6636 7.19859 18.22 7.1619 17.3996C7.12188 16.5124 7.11187 16.2489 7.11187 14.0044C7.11187 11.7599 7.12188 11.4964 7.1619 10.6093C7.19859 9.78886 7.33533 9.34529 7.45205 9.04847C7.60547 8.65493 7.78556 8.37478 8.07905 8.08129C8.37254 7.7878 8.65269 7.60437 9.04623 7.45429C9.34306 7.3409 9.78662 7.20082 10.6071 7.16414C11.4942 7.12078 11.761 7.11411 14.0022 7.11411ZM14.0022 5.59998C11.721 5.59998 11.4342 5.60998 10.537 5.65C9.64322 5.69002 9.03289 5.83343 8.49928 6.04021C7.94565 6.25365 7.47874 6.54381 7.01182 7.01072C6.54491 7.47764 6.25809 7.94788 6.04131 8.49818C5.83453 9.03179 5.69112 9.64211 5.6511 10.5393C5.61108 11.4331 5.60107 11.7199 5.60107 14.0011C5.60107 16.2823 5.61108 16.5691 5.6511 17.4663C5.69112 18.3601 5.83453 18.9704 6.04131 19.5073C6.25475 20.061 6.54491 20.5279 7.01182 20.9948C7.47874 21.4617 7.94898 21.7485 8.49928 21.9653C9.03289 22.1721 9.64322 22.3155 10.5404 22.3555C11.4375 22.3955 11.721 22.4055 14.0055 22.4055C16.2901 22.4055 16.5736 22.3955 17.4707 22.3555C18.3645 22.3155 18.9748 22.1721 19.5118 21.9653C20.0654 21.7519 20.5323 21.4617 20.9992 20.9948C21.4661 20.5279 21.753 20.0576 21.9697 19.5073C22.1765 18.9737 22.3199 18.3634 22.3599 17.4663C22.4 16.5691 22.41 16.2856 22.41 14.0011C22.41 11.7165 22.4 11.4331 22.3599 10.5359C22.3199 9.64211 22.1765 9.03179 21.9697 8.49484C21.7563 7.94121 21.4661 7.4743 20.9992 7.00739C20.5323 6.54047 20.0621 6.25365 19.5118 6.03687C18.9782 5.8301 18.3678 5.68669 17.4707 5.64667C16.5702 5.60998 16.2834 5.59998 14.0022 5.59998Z" fill="white"/>
<path d="M14.0021 9.68884C11.6209 9.68884 9.68652 11.6199 9.68652 14.0045C9.68652 16.3891 11.6175 18.3201 14.0021 18.3201C16.3867 18.3201 18.3178 16.3891 18.3178 14.0045C18.3178 11.6199 16.3867 9.68884 14.0021 9.68884ZM14.0021 16.8026C12.4547 16.8026 11.2007 15.5486 11.2007 14.0011C11.2007 12.4536 12.4547 11.1996 14.0021 11.1996C15.5496 11.1996 16.8036 12.4536 16.8036 14.0011C16.8036 15.5486 15.5496 16.8026 14.0021 16.8026Z" fill="white"/>
<path d="M18.4879 10.5226C19.0442 10.5226 19.4951 10.0716 19.4951 9.51538C19.4951 8.95912 19.0442 8.50818 18.4879 8.50818C17.9317 8.50818 17.4807 8.95912 17.4807 9.51538C17.4807 10.0716 17.9317 10.5226 18.4879 10.5226Z" fill="white"/>
</svg>
