<svg width="28" height="28" viewBox="0 0 28 28" fill="none" xmlns="http://www.w3.org/2000/svg"><rect width="28" height="28" rx="14" fill="#243542"/><path fill-rule="evenodd" clip-rule="evenodd" d="M13.97 4C8.457 4 4 8.583 4 14.254c0 4.532 2.856 8.369 6.817 9.727.496.102.677-.221.677-.493 0-.237-.016-1.052-.016-1.9-2.774.61-3.351-1.223-3.351-1.223C7.68 19.177 7.02 18.87 7.02 18.87c-.908-.628.066-.628.066-.628 1.007.068 1.535 1.052 1.535 1.052.891 1.562 2.327 1.12 2.905.85.083-.663.347-1.121.628-1.376-2.213-.237-4.54-1.12-4.54-5.059 0-1.12.396-2.037 1.023-2.75-.099-.254-.445-1.307.1-2.716 0 0 .841-.272 2.74 1.052a9.401 9.401 0 0 1 2.492-.34c.842 0 1.7.12 2.493.34 1.898-1.324 2.74-1.052 2.74-1.052.545 1.409.198 2.462.099 2.716.644.713 1.023 1.63 1.023 2.75 0 3.939-2.327 4.804-4.556 5.06.364.322.677.933.677 1.9 0 1.375-.016 2.479-.016 2.818 0 .272.181.595.677.493 3.961-1.359 6.817-5.195 6.817-9.728C23.94 8.584 19.467 4 13.97 4Z" fill="#fff"/></svg>
