<svg width="28" height="28" viewBox="0 0 28 28" fill="none" xmlns="http://www.w3.org/2000/svg">
<g clip-path="url(#clip0_3427_27076)">
<path d="M14 28C21.732 28 28 21.732 28 14C28 6.26801 21.732 0 14 0C6.26801 0 0 6.26801 0 14C0 21.732 6.26801 28 14 28Z" fill="#243542"/>
<path d="M23.3334 14C23.3334 12.8702 22.4164 11.9533 21.2866 11.9533C20.7299 11.9533 20.2386 12.1661 19.8784 12.5264C18.4866 11.5275 16.5544 10.8726 14.4258 10.7907L15.3591 6.41876L18.3883 7.05735C18.4211 7.82694 19.0597 8.44917 19.8457 8.44917C20.648 8.44917 21.303 7.7942 21.303 6.99186C21.303 6.18952 20.648 5.53455 19.8457 5.53455C19.2726 5.53455 18.7813 5.86203 18.5521 6.35326L15.1626 5.63279C15.0644 5.61642 14.9661 5.63279 14.8843 5.68191C14.8024 5.73104 14.7533 5.81291 14.7205 5.91115L13.6889 10.7907C11.5112 10.8562 9.56262 11.4948 8.15443 12.5264C7.7942 12.1825 7.2866 11.9533 6.74625 11.9533C5.61642 11.9533 4.69946 12.8702 4.69946 14C4.69946 14.8351 5.19069 15.5392 5.91116 15.8667C5.87841 16.0632 5.86204 16.2761 5.86204 16.4889C5.86204 19.6328 9.5135 22.1708 14.0328 22.1708C18.5521 22.1708 22.2036 19.6328 22.2036 16.4889C22.2036 16.2761 22.1872 16.0796 22.1544 15.8831C22.8258 15.5556 23.3334 14.8351 23.3334 14ZM9.33338 15.4574C9.33338 14.655 9.98835 14 10.7907 14C11.593 14 12.248 14.655 12.248 15.4574C12.248 16.2597 11.593 16.9147 10.7907 16.9147C9.98835 16.9147 9.33338 16.2597 9.33338 15.4574ZM17.4714 19.3053C16.4726 20.3041 14.5731 20.3696 14.0164 20.3696C13.4597 20.3696 11.5439 20.2878 10.5614 19.3053C10.4141 19.1579 10.4141 18.9123 10.5614 18.765C10.7088 18.6176 10.9544 18.6176 11.1018 18.765C11.724 19.3872 13.0667 19.6164 14.0328 19.6164C14.9989 19.6164 16.3252 19.3872 16.9638 18.765C17.1112 18.6176 17.3568 18.6176 17.5041 18.765C17.6188 18.9287 17.6188 19.1579 17.4714 19.3053ZM17.2094 16.9147C16.4071 16.9147 15.7521 16.2597 15.7521 15.4574C15.7521 14.655 16.4071 14 17.2094 14C18.0117 14 18.6667 14.655 18.6667 15.4574C18.6667 16.2597 18.0117 16.9147 17.2094 16.9147Z" fill="white"/>
</g>
<defs>
<clipPath id="clip0_3427_27076">
<rect width="28" height="28" fill="white"/>
</clipPath>
</defs>
</svg>
