<svg width="28" height="28" viewBox="0 0 28 28" fill="none" xmlns="http://www.w3.org/2000/svg">
<rect width="28" height="28" rx="14" fill="#243542"/>
<path d="M15.3208 14.2656C15.3208 17.505 12.7173 20.1311 9.50596 20.1311C6.29459 20.1311 3.69092 17.5044 3.69092 14.2656C3.69092 11.0268 6.29439 8.40002 9.50596 8.40002C12.7175 8.40002 15.3208 11.0263 15.3208 14.2656Z" fill="white"/>
<path d="M21.6998 14.2656C21.6998 17.3148 20.3981 19.7876 18.7923 19.7876C17.1865 19.7876 15.8848 17.3148 15.8848 14.2656C15.8848 11.2164 17.1863 8.74359 18.7921 8.74359C20.3979 8.74359 21.6996 11.2156 21.6996 14.2656" fill="white"/>
<path d="M24.3091 14.2656C24.3091 16.9969 23.8514 19.2124 23.2865 19.2124C22.7217 19.2124 22.2642 16.9975 22.2642 14.2656C22.2642 11.5337 22.7219 9.31873 23.2865 9.31873C23.8512 9.31873 24.3091 11.5335 24.3091 14.2656Z" fill="white"/>
</svg>
