<svg width="28" height="28" viewBox="0 0 28 28" fill="none" xmlns="http://www.w3.org/2000/svg">
<rect width="28" height="28" rx="14" fill="#243542"/>
<path d="M20.5632 6.29999H7.43687C7.13537 6.29999 6.84621 6.41976 6.63302 6.63295C6.41982 6.84615 6.30005 7.1353 6.30005 7.43681V20.5632C6.30005 20.8647 6.41982 21.1538 6.63302 21.367C6.84621 21.5802 7.13537 21.7 7.43687 21.7H20.5632C20.8647 21.7 21.1539 21.5802 21.3671 21.367C21.5803 21.1538 21.7 20.8647 21.7 20.5632V7.43681C21.7 7.1353 21.5803 6.84615 21.3671 6.63295C21.1539 6.41976 20.8647 6.29999 20.5632 6.29999ZM10.8901 19.4189H8.57476V12.0643H10.8901V19.4189ZM9.73083 11.0451C9.46819 11.0436 9.21188 10.9644 8.99424 10.8174C8.7766 10.6704 8.60738 10.4622 8.50794 10.2191C8.40851 9.976 8.38331 9.7089 8.43554 9.4515C8.48776 9.19411 8.61505 8.95795 8.80136 8.77283C8.98767 8.58771 9.22465 8.46193 9.48237 8.41137C9.7401 8.3608 10.007 8.38771 10.2495 8.4887C10.4919 8.5897 10.699 8.76024 10.8446 8.97883C10.9902 9.19741 11.0678 9.45422 11.0676 9.71686C11.0701 9.8927 11.0372 10.0672 10.9707 10.2301C10.9043 10.3929 10.8058 10.5407 10.6811 10.6646C10.5563 10.7886 10.4079 10.8862 10.2446 10.9515C10.0814 11.0169 9.90664 11.0487 9.73083 11.0451ZM19.4243 19.4253H17.11V15.4074C17.11 14.2224 16.6063 13.8567 15.9561 13.8567C15.2695 13.8567 14.5957 14.3743 14.5957 15.4373V19.4253H12.2804V12.0696H14.507V13.0888H14.5369C14.7604 12.6364 15.5433 11.8632 16.7378 11.8632C18.0297 11.8632 19.4253 12.63 19.4253 14.8759L19.4243 19.4253Z" fill="white"/>
</svg>
