<svg width="56" height="56" viewBox="0 0 56 56" fill="none" xmlns="http://www.w3.org/2000/svg">
<mask id="mask0_3801_4850" style="mask-type:alpha" maskUnits="userSpaceOnUse" x="0" y="0" width="56" height="56">
<path d="M0 0H56V56H0V0Z" fill="#DEE7ED"/>
</mask>
<g mask="url(#mask0_3801_4850)">
<g filter="url(#filter0_d_3801_4850)">
<path d="M0 0H56V56H0V0Z" fill="#DEE7ED"/>
<path fill-rule="evenodd" clip-rule="evenodd" d="M28.0002 19.8899L20.4521 24.0299V32.1791L28.0002 36.319L35.5482 32.1791V24.0299L28.0002 19.8899ZM37.0482 23.1418L28.0002 18.1791L18.9521 23.1418V33.0672L28.0002 38.0299L37.0482 33.0672V23.1418Z" fill="white"/>
<path fill-rule="evenodd" clip-rule="evenodd" d="M26.4652 22.9662C26.8291 22.7682 27.2845 22.9027 27.4825 23.2666C27.6804 23.6304 27.5459 24.0859 27.1821 24.2838L24.0449 25.9905V26.8246C24.0449 27.2388 23.7091 27.5746 23.2949 27.5746C22.8807 27.5746 22.5449 27.2388 22.5449 26.8246V25.099L26.4652 22.9662ZM32.7049 24.7948C33.1191 24.7948 33.4549 25.1306 33.4549 25.5448V26.8246C33.4549 27.2388 33.1191 27.5746 32.7049 27.5746C32.2907 27.5746 31.9549 27.2388 31.9549 26.8246V25.5448C31.9549 25.1306 32.2907 24.7948 32.7049 24.7948ZM32.7049 28.6343C33.1191 28.6343 33.4549 28.9701 33.4549 29.3843V31.1099L29.5346 33.2428C29.1707 33.4407 28.7153 33.3062 28.5173 32.9424C28.3194 32.5785 28.4539 32.1231 28.8177 31.9251L31.9549 30.2184V29.3843C31.9549 28.9701 32.2907 28.6343 32.7049 28.6343ZM23.2949 28.7545C23.7091 28.7545 24.0449 29.0903 24.0449 29.5045V30.7843C24.0449 31.1985 23.7091 31.5343 23.2949 31.5343C22.8807 31.5343 22.5449 31.1985 22.5449 30.7843V29.5045C22.5449 29.0903 22.8807 28.7545 23.2949 28.7545Z" fill="white"/>
<path fill-rule="evenodd" clip-rule="evenodd" d="M43.5 28C43.5 36.5604 36.5604 43.5 28 43.5C19.4396 43.5 12.5 36.5604 12.5 28C12.5 19.4396 19.4396 12.5 28 12.5C36.5604 12.5 43.5 19.4396 43.5 28ZM28 42C35.732 42 42 35.732 42 28C42 20.268 35.732 14 28 14C20.268 14 14 20.268 14 28C14 35.732 20.268 42 28 42Z" fill="white"/>
<path fill-rule="evenodd" clip-rule="evenodd" d="M27.9998 23.2925C28.0946 23.2925 28.1714 23.2157 28.1714 23.1209C28.1714 23.0261 28.0946 22.9492 27.9998 22.9492C27.905 22.9492 27.8281 23.0261 27.8281 23.1209C27.8281 23.2157 27.905 23.2925 27.9998 23.2925ZM27.9998 24.7925C28.923 24.7925 29.6714 24.0441 29.6714 23.1209C29.6714 22.1977 28.923 21.4492 27.9998 21.4492C27.0765 21.4492 26.3281 22.1977 26.3281 23.1209C26.3281 24.0441 27.0765 24.7925 27.9998 24.7925Z" fill="white"/>
<path fill-rule="evenodd" clip-rule="evenodd" d="M27.9998 33.4687C28.0946 33.4687 28.1714 33.3918 28.1714 33.297C28.1714 33.2022 28.0946 33.1254 27.9998 33.1254C27.905 33.1254 27.8281 33.2022 27.8281 33.297C27.8281 33.3918 27.905 33.4687 27.9998 33.4687ZM27.9998 34.9687C28.923 34.9687 29.6714 34.2203 29.6714 33.297C29.6714 32.3738 28.923 31.6254 27.9998 31.6254C27.0765 31.6254 26.3281 32.3738 26.3281 33.297C26.3281 34.2203 27.0765 34.9687 27.9998 34.9687Z" fill="white"/>
</g>
</g>
<defs>
<filter id="filter0_d_3801_4850" x="-20" y="-16" width="96" height="96" filterUnits="userSpaceOnUse" color-interpolation-filters="sRGB">
<feFlood flood-opacity="0" result="BackgroundImageFix"/>
<feColorMatrix in="SourceAlpha" type="matrix" values="0 0 0 0 0 0 0 0 0 0 0 0 0 0 0 0 0 0 127 0" result="hardAlpha"/>
<feOffset dy="4"/>
<feGaussianBlur stdDeviation="10"/>
<feComposite in2="hardAlpha" operator="out"/>
<feColorMatrix type="matrix" values="0 0 0 0 0.529412 0 0 0 0 0.678431 0 0 0 0 0.796078 0 0 0 1 0"/>
<feBlend mode="normal" in2="BackgroundImageFix" result="effect1_dropShadow_3801_4850"/>
<feBlend mode="normal" in="SourceGraphic" in2="effect1_dropShadow_3801_4850" result="shape"/>
</filter>
</defs>
</svg>
